<?xml version="1.0" ?><svg xmlns="http://www.w3.org/2000/svg" xmlns:xlink="http://www.w3.org/1999/xlink" version="1.1" viewBox="0 0 32 32" style="enable-background:new 0 0 32 32;" xml:space="preserve"><style type="text/css">
	.st0{display:none;}
	.st1{display:inline;}
	.st2{fill:#CDF6F9;}
	.st3{fill:#FFFFFF;}
	.st4{fill:#1A83A8;}
</style><g id="Layer_1" class="st0"/><g id="Layer_2"/><g id="Layer_3"/><g id="Layer_4"/><g id="Layer_5"/><g id="Layer_6"/><g id="Layer_7"/><g id="Layer_8"/><g id="Layer_9"/><g id="Layer_10"/><g id="Layer_11"/><g id="Layer_12"/><g id="Layer_13"/><g id="Layer_14"/><g id="Layer_15"/><g id="Layer_16"><path class="st2" d="M20.65,15.679v0.63c0,1.773,1.437,3.21,3.21,3.21h3.92v3.4c0,1.98-1.61,3.59-3.6,3.59H6.6   c-1.988,0-3.6-1.612-3.6-3.6V9.079c0-1.98,1.61-3.59,3.6-3.59h17.58c1.99,0,3.6,1.61,3.6,3.59v3.39h-3.92   C22.087,12.469,20.65,13.906,20.65,15.679z"/><path class="st3" d="M28.051,19.522h-4.195c-1.772,0-3.209-1.437-3.209-3.209V15.68c0-1.772,1.437-3.209,3.209-3.209h4.195   c0.524,0,0.949,0.425,0.949,0.949v5.153C29,19.097,28.575,19.522,28.051,19.522z"/><circle class="st3" cx="7.5" cy="22.011" r="4.5"/><path class="st4" d="M28.681,11.69V9.078c0-2.476-2.02-4.49-4.501-4.49H6.6c-2.481,0-4.5,2.014-4.5,4.49v6.33   c0,0.497,0.403,0.9,0.9,0.9s0.9-0.403,0.9-0.9v-6.33c0-1.483,1.211-2.69,2.699-2.69h17.58c1.489,0,2.7,1.207,2.7,2.69v2.495h-3.024   c-2.266,0-4.109,1.843-4.109,4.109v0.633c0,2.266,1.844,4.109,4.109,4.109h3.024v2.494c0,1.483-1.211,2.689-2.7,2.689H14.11   c-0.497,0-0.9,0.403-0.9,0.9s0.403,0.9,0.9,0.9H24.18c2.481,0,4.501-2.015,4.501-4.49v-2.612c0.709-0.259,1.22-0.934,1.22-1.732   v-5.153C29.9,12.624,29.39,11.949,28.681,11.69z M21.547,16.314v-0.633c0-1.273,1.035-2.309,2.309-2.309l4.244,0.049v5.153   c0,0.027-0.021,0.049-0.049,0.049h-4.195C22.582,18.623,21.547,17.588,21.547,16.314z"/><path class="st4" d="M7.5,16.613c-2.978,0-5.4,2.422-5.4,5.4c0,2.977,2.423,5.399,5.4,5.399s5.4-2.423,5.4-5.399   C12.9,19.035,10.478,16.613,7.5,16.613z M7.5,25.611c-1.985,0-3.6-1.614-3.6-3.599c0-1.985,1.614-3.6,3.6-3.6s3.6,1.614,3.6,3.6   C11.1,23.997,9.485,25.611,7.5,25.611z"/><path class="st4" d="M9.041,21.111h-3.08c-0.497,0-0.9,0.403-0.9,0.9s0.403,0.9,0.9,0.9h3.08c0.497,0,0.9-0.403,0.9-0.9   S9.538,21.111,9.041,21.111z"/></g><g id="Layer_17"/><g id="Layer_18"/><g id="Layer_19"/><g id="Layer_20"/><g id="Layer_21"/><g id="Layer_22"/><g id="Layer_23"/><g id="Layer_24"/><g id="Layer_25"/><g id="Layer_26"/></svg>