<svg viewBox="0 0 91 91" xml:space="preserve" xmlns="http://www.w3.org/2000/svg"><path d="M36.056 32.235c-.087.019-.081.024 0 0z" fill="#000000" class="fill-000000"></path><path d="M46.242 29.749c5.152-2.417 8.324-6.999 8.327-12.752.002-5.917-2.536-11.591-8.062-14.195-2.588-1.223-5.831-1.837-8.762-1.287-1.27-1.895-4.97-1.411-4.97 1.473l-.002 1.423c-1.354.101-6.397.381-6.717.381-2.382.003-4.896.542-7.04 1.567-3.397 1.618-5.094 3.946-6.118 7.099-1.198.092-2.331.904-2.331 2.457 0 8.814.096 17.629.142 26.443.008 1.303 1.104 2.427 2.42 2.42 1.58-.01 3.162-.018 4.742-.026-.04 1.333-.359 13.477-.448 18.22-.127 6.836-.42 13.683-.42 20.521 0 3.331 5.18 3.338 5.18 0-.001-7.124-.336-14.268-.527-21.391-.125-4.746-.519-16.187-.541-17.368 1.646-.01 3.293-.018 4.941-.026 1.265-.007 2.357-1.071 2.349-2.35-.024-4.505.044-9.019.107-13.537 1.427-.193 2.898-.252 4.357-.277.007.379.008.76.015 1.139.044 2.344 3.351 2.498 3.17 2.552.113-.025 8.076-1.493 10.188-2.486zM43.987 6.306c4.837 2.036 6.763 7.397 5.919 12.384-.759 4.497-4.618 6.716-8.727 7.679-.876.206-1.965.252-3.074.327.102-7.33.078-14.657.072-21.987 1.944.514 3.988.827 5.81 1.597zm-20.32 3.093c-.354 10.177.028 20.408.04 30.597l-8.142-.044c.051-8.012.126-16.026.126-24.038 0-.865-.355-1.498-.876-1.908 1.739-2.9 5.393-4.353 8.852-4.607zm4.904 14.825c.054-5.058.048-10.111-.137-15.151 1.456.005 2.921-.063 4.336-.145a1389.27 1389.27 0 0 0 .046 15.548c-1.421-.013-2.858-.065-4.245-.252z" fill="#000000" class="fill-000000"></path><path d="M81.167 77.027c.05-8.813.144-17.628.144-26.442 0-1.55-1.133-2.363-2.333-2.456-1.022-3.153-2.72-5.483-6.115-7.101-2.146-1.021-12.403-1.847-13.759-1.946l-.002-1.425c0-2.878-3.698-3.369-4.969-1.473-2.932-.55-6.175.064-8.763 1.287-5.522 2.61-8.062 8.277-8.06 14.197.003 5.748 3.175 10.337 8.327 12.752 2.112.992 4.36 1.628 6.66 2.005.876.144 3.415.455 3.527.479-.182-.053 3.125-.214 3.17-2.552.008-.379.008-.76.015-1.139 1.46.024 2.93.087 4.356.276.064 4.518.133 9.032.108 13.537-.007 1.276 1.083 2.343 2.35 2.349 1.535.011 3.071.019 4.608.025-.058.71-.083 1.346-.12 1.749a339.387 339.387 0 0 0-.613 7.042c-.257 3.331 5.434 3.338 5.178 0a520.082 520.082 0 0 1-.438-6.114c-.058-.89-.11-1.772-.187-2.655l4.5.022c1.311.01 2.41-1.112 2.416-2.417zm-4.104-28.351c-.519.41-.875 1.043-.875 1.909 0 8.011.077 16.026.127 24.036-2.714.017-5.429.03-8.144.045.012-10.188.396-20.42.041-30.597 3.456.256 7.111 1.707 8.851 4.607zM50.697 61.039c-4.108-.964-7.965-3.18-8.727-7.678-.844-4.998 1.087-10.338 5.922-12.386 1.82-.772 3.866-1.085 5.809-1.596-.005 7.33-.028 14.656.072 21.986-1.107-.072-2.195-.118-3.076-.326zm8.366-1.893c.053-5.184.053-10.365.046-15.548 1.414.084 2.878.153 4.335.145-.185 5.042-.189 10.095-.137 15.15-1.388.189-2.823.24-4.244.253z" fill="#000000" class="fill-000000"></path><path d="M55.823 66.904c.081.025.086.02 0 0z" fill="#000000" class="fill-000000"></path></svg>