<svg viewBox="-286.851 -7.667 1024 1024" xml:space="preserve" xmlns="http://www.w3.org/2000/svg"><path d="M7.5 254.999a3.667 3.667 0 0 1-7.334 0V197a3.667 3.667 0 0 1 7.334 0v57.999zM499.681 254.999a3.666 3.666 0 1 1-7.333 0V197a3.667 3.667 0 0 1 7.333 0v57.999zM7 121.667a3.5 3.5 0 1 0-7 0v30a3.5 3.5 0 1 0 7 0v-30zM7.5 335.333a3.667 3.667 0 0 1-7.334 0v-57.999a3.667 3.667 0 0 1 7.334 0v57.999z" fill="#696971" class="fill-696971"></path><path d="M497.346 940.667c0 37.556-30.444 68-68 68H70.681c-37.555 0-68-30.444-68-68V68c0-37.555 30.445-68 68-68h358.665c37.556 0 68 30.445 68 68v872.667z" fill="#000000" class="fill-080808"></path><path fill="#524D61" d="M31.014 115.5h438v777h-438z" class="fill-524d61"></path><circle cx="250.014" cy="32.75" fill="#484848" r="5" class="fill-484848"></circle><circle cx="181.167" cy="60.75" fill="#464646" r="7.5" class="fill-464646"></circle><path d="M284.264 61a4.25 4.25 0 0 1-4.25 4.25h-60a4.25 4.25 0 0 1 0-8.5h60a4.25 4.25 0 0 1 4.25 4.25z" fill="#464646" class="fill-464646"></path><ellipse cx="250.014" cy="947.5" fill="none" rx="31.5" ry="32" stroke="#4F5052" stroke-miterlimit="10" stroke-width="4" class="stroke-4f5052"></ellipse></svg>